<svg width="98" height="34" fill="none" xmlns="http://www.w3.org/2000/svg"><path d="M90.038 8.985V3.5h2.632c.277 0 .545.067.802.2.263.13.479.323.647.58.174.253.26.565.26.937 0 .372-.089.694-.267.967a1.774 1.774 0 01-.67.617 1.738 1.738 0 01-.832.215h-2.037v-.75h1.784c.253 0 .478-.09.677-.268.203-.184.305-.444.305-.78 0-.348-.102-.596-.305-.744a1.066 1.066 0 00-.654-.223h-1.383v4.735h-.96zm3.197-2.55l1.368 2.55h-1.071l-1.33-2.55h1.032zm-1.183 5.822a5.819 5.819 0 01-2.312-.461 5.98 5.98 0 01-3.174-3.175 5.818 5.818 0 01-.461-2.312c0-.823.153-1.594.46-2.312A5.98 5.98 0 0189.74.822a5.819 5.819 0 012.312-.46c.823 0 1.594.153 2.313.46a5.98 5.98 0 013.174 3.175c.307.718.461 1.49.461 2.312a5.84 5.84 0 01-.46 2.312 5.979 5.979 0 01-3.175 3.175c-.72.307-1.49.46-2.313.46zm0-1.108a4.64 4.64 0 002.431-.654 4.977 4.977 0 001.755-1.748 4.681 4.681 0 00.654-2.438c0-.892-.218-1.703-.654-2.431a4.959 4.959 0 00-1.754-1.755 4.643 4.643 0 00-2.432-.654 4.68 4.68 0 00-2.438.654 4.978 4.978 0 00-1.747 1.755 4.642 4.642 0 00-.654 2.431c0 .892.218 1.705.654 2.438a4.997 4.997 0 001.747 1.748 4.681 4.681 0 002.438.654zm-71.429 5.693h-3.586c-.138-.766-.395-1.44-.77-2.023a5.66 5.66 0 00-1.379-1.483 5.942 5.942 0 00-1.827-.919 7.133 7.133 0 00-2.126-.31c-1.357 0-2.57.34-3.644 1.023-1.065.681-1.907 1.681-2.528 3-.613 1.317-.92 2.926-.92 4.826 0 1.916.307 3.532.92 4.85.62 1.318 1.467 2.314 2.54 2.988 1.073.674 2.28 1.011 3.62 1.011.743 0 1.448-.1 2.115-.298a6.091 6.091 0 001.827-.908 5.501 5.501 0 002.172-3.46l3.586.012a9.6 9.6 0 01-1.115 3.195 8.817 8.817 0 01-2.103 2.505 9.51 9.51 0 01-2.92 1.62c-1.095.384-2.29.575-3.585.575-2.038 0-3.854-.482-5.447-1.448-1.594-.973-2.85-2.363-3.77-4.172-.912-1.808-1.368-3.964-1.368-6.47 0-2.513.46-4.67 1.38-6.47.919-1.808 2.175-3.195 3.77-4.16 1.593-.974 3.405-1.46 5.435-1.46 1.249 0 2.413.18 3.494.54a9.221 9.221 0 012.93 1.563 8.598 8.598 0 012.15 2.505c.567.981.95 2.104 1.149 3.368zm6.222-7.654v23.536h-3.551V9.188h3.55zm3.593 23.536V9.188h14.756v3.057H33.99v7.171h10.435v3.046H33.99v7.206h11.343v3.056H30.438zm54.138-11.768c0 2.513-.46 4.674-1.379 6.482-.919 1.8-2.18 3.187-3.78 4.16-1.594.966-3.406 1.448-5.437 1.448-2.038 0-3.857-.482-5.459-1.448-1.593-.973-2.85-2.363-3.77-4.172-.919-1.808-1.378-3.964-1.378-6.47 0-2.513.46-4.67 1.379-6.47.92-1.808 2.176-3.195 3.77-4.16 1.6-.974 3.42-1.46 5.458-1.46 2.03 0 3.843.486 5.436 1.46 1.602.965 2.862 2.352 3.781 4.16.92 1.8 1.38 3.957 1.38 6.47zm-3.516 0c0-1.915-.31-3.528-.931-4.838-.613-1.318-1.456-2.314-2.529-2.988-1.064-.682-2.271-1.023-3.62-1.023-1.356 0-2.566.34-3.631 1.023-1.065.674-1.908 1.67-2.529 2.988-.613 1.31-.92 2.923-.92 4.838 0 1.916.307 3.532.92 4.85.62 1.31 1.464 2.306 2.529 2.988 1.065.674 2.275 1.011 3.631 1.011 1.349 0 2.555-.337 3.62-1.011 1.073-.682 1.916-1.678 2.529-2.988.62-1.318.93-2.934.93-4.85zM48.359 9.188v23.536h3.551v-20.48h10.665V9.189H48.36z" fill="#fff"/></svg>