<svg width="119" height="40" fill="none" xmlns="http://www.w3.org/2000/svg"><path d="M109.126 10.82V4.166h3.192c.336 0 .661.081.973.244.319.156.58.39.785.703.21.306.315.685.315 1.136 0 .45-.108.841-.324 1.172a2.155 2.155 0 01-.812.748 2.105 2.105 0 01-1.01.262h-2.47v-.91h2.164c.306 0 .58-.109.82-.325.247-.223.37-.538.37-.947 0-.42-.123-.721-.37-.902-.24-.18-.505-.27-.793-.27h-1.677v5.743h-1.163zm3.877-3.092l1.659 3.092h-1.299l-1.613-3.092h1.253zm-1.434 7.06a7.056 7.056 0 01-2.804-.56 7.253 7.253 0 01-3.85-3.85 7.068 7.068 0 01-.559-2.804c0-.998.187-1.932.559-2.804a7.26 7.26 0 013.85-3.85 7.057 7.057 0 012.804-.559c.998 0 1.933.187 2.804.56a7.234 7.234 0 012.299 1.55 7.244 7.244 0 011.551 2.3 7.05 7.05 0 01.559 2.803 7.05 7.05 0 01-.559 2.804 7.245 7.245 0 01-1.551 2.3 7.242 7.242 0 01-2.299 1.55 7.053 7.053 0 01-2.804.56zm0-1.344c1.082 0 2.065-.265 2.948-.794a6.035 6.035 0 002.128-2.119c.529-.89.794-1.875.794-2.957 0-1.082-.265-2.064-.794-2.948a6.011 6.011 0 00-2.128-2.128c-.883-.529-1.866-.793-2.948-.793-1.082 0-2.067.264-2.957.793a6.035 6.035 0 00-2.119 2.128c-.529.884-.793 1.866-.793 2.948 0 1.082.264 2.068.793 2.957a6.059 6.059 0 002.119 2.12c.89.528 1.875.793 2.957.793zm-86.626 6.904h-4.348c-.168-.93-.479-1.747-.934-2.453a6.864 6.864 0 00-1.673-1.798 7.21 7.21 0 00-2.216-1.115 8.652 8.652 0 00-2.578-.376c-1.645 0-3.118.413-4.418 1.24-1.292.827-2.314 2.04-3.067 3.638-.743 1.598-1.115 3.55-1.115 5.854 0 2.323.372 4.283 1.115 5.881.753 1.599 1.78 2.806 3.08 3.624 1.301.818 2.765 1.227 4.39 1.227a8.91 8.91 0 002.565-.363 7.385 7.385 0 002.216-1.1 6.747 6.747 0 001.673-1.77c.465-.707.785-1.515.962-2.426l4.348.014a11.643 11.643 0 01-1.352 3.875 10.69 10.69 0 01-2.55 3.038 11.533 11.533 0 01-3.54 1.965c-1.33.465-2.779.697-4.349.697-2.472 0-4.674-.585-6.606-1.756-1.933-1.18-3.457-2.867-4.572-5.06C.868 30.993.315 28.377.315 25.339c0-3.048.558-5.664 1.673-7.847 1.115-2.193 2.639-3.875 4.571-5.046 1.933-1.18 4.13-1.77 6.593-1.77 1.515 0 2.927.219 4.237.655a11.18 11.18 0 013.554 1.896c1.05.827 1.919 1.84 2.606 3.038.688 1.19 1.153 2.55 1.394 4.084zm7.546-9.282V39.61h-4.307V11.066h4.307zm4.357 28.544V11.066h17.896v3.707H41.153v8.697h12.655v3.694H41.153v8.738h13.756v3.708H36.846zm65.657-14.272c0 3.047-.557 5.668-1.672 7.86-1.115 2.184-2.644 3.866-4.586 5.046-1.932 1.17-4.13 1.756-6.592 1.756-2.472 0-4.679-.585-6.62-1.756-1.933-1.18-3.457-2.867-4.572-5.06-1.115-2.192-1.673-4.808-1.673-7.846 0-3.048.558-5.664 1.673-7.847 1.115-2.193 2.639-3.875 4.571-5.046 1.942-1.18 4.15-1.77 6.62-1.77 2.463 0 4.66.59 6.593 1.77 1.942 1.171 3.47 2.853 4.586 5.046 1.115 2.183 1.672 4.799 1.672 7.847zm-4.265 0c0-2.323-.376-4.28-1.129-5.868-.743-1.598-1.765-2.806-3.066-3.624-1.292-.827-2.755-1.24-4.39-1.24-1.645 0-3.113.413-4.405 1.24-1.291.818-2.313 2.026-3.066 3.624-.743 1.589-1.115 3.545-1.115 5.868 0 2.323.372 4.283 1.115 5.881.753 1.59 1.775 2.797 3.066 3.624 1.292.818 2.76 1.227 4.405 1.227 1.635 0 3.098-.41 4.39-1.227 1.3-.827 2.323-2.035 3.066-3.624.753-1.598 1.13-3.558 1.13-5.881zM58.58 11.066V39.61h4.308V14.773h12.934v-3.707H58.58z" fill="#82441E"/></svg>