<svg width="98" height="34" viewBox="0 0 98 34" fill="none" xmlns="http://www.w3.org/2000/svg">
<path d="M90.0377 8.98535V3.49872H92.6695C92.9471 3.49872 93.2147 3.56563 93.4724 3.69946C93.7351 3.82832 93.9507 4.02161 94.1192 4.27934C94.2927 4.53211 94.3794 4.84436 94.3794 5.21608C94.3794 5.5878 94.2902 5.90996 94.1118 6.18256C93.9383 6.4502 93.7153 6.65589 93.4427 6.79962C93.175 6.94335 92.8975 7.01522 92.61 7.01522H90.573V6.26434H92.3573C92.61 6.26434 92.8355 6.17512 93.0338 5.9967C93.237 5.81331 93.3386 5.55311 93.3386 5.21608C93.3386 4.86914 93.237 4.62133 93.0338 4.47264C92.8355 4.32395 92.6175 4.2496 92.3796 4.2496H90.9968V8.98535H90.0377ZM93.2345 6.43533L94.6025 8.98535H93.5319L92.2011 6.43533H93.2345ZM92.0524 12.2565C91.2297 12.2565 90.459 12.1029 89.7403 11.7956C89.0217 11.4883 88.3897 11.062 87.8445 10.5168C87.2994 9.97165 86.8731 9.33972 86.5658 8.62106C86.2585 7.90239 86.1049 7.13169 86.1049 6.30895C86.1049 5.4862 86.2585 4.7155 86.5658 3.99683C86.8731 3.27817 87.2994 2.64624 87.8445 2.10105C88.3897 1.55586 89.0217 1.12962 89.7403 0.822325C90.459 0.515034 91.2297 0.361389 92.0524 0.361389C92.8752 0.361389 93.6459 0.515034 94.3646 0.822325C95.0832 1.12962 95.7151 1.55586 96.2603 2.10105C96.8055 2.64624 97.2318 3.27817 97.5391 3.99683C97.8464 4.7155 98 5.4862 98 6.30895C98 7.13169 97.8464 7.90239 97.5391 8.62106C97.2318 9.33972 96.8055 9.97165 96.2603 10.5168C95.7151 11.062 95.0832 11.4883 94.3646 11.7956C93.6459 12.1029 92.8752 12.2565 92.0524 12.2565ZM92.0524 11.1488C92.9446 11.1488 93.7549 10.9307 94.4835 10.4945C95.217 10.0584 95.8019 9.47602 96.238 8.74744C96.6742 8.01391 96.8923 7.20108 96.8923 6.30895C96.8923 5.41681 96.6742 4.60646 96.238 3.87788C95.8019 3.14435 95.217 2.55951 94.4835 2.12335C93.7549 1.6872 92.9446 1.46912 92.0524 1.46912C91.1603 1.46912 90.3475 1.6872 89.6139 2.12335C88.8854 2.55951 88.303 3.14435 87.8669 3.87788C87.4307 4.60646 87.2126 5.41681 87.2126 6.30895C87.2126 7.20108 87.4307 8.01391 87.8669 8.74744C88.303 9.47602 88.8854 10.0584 89.6139 10.4945C90.3475 10.9307 91.1603 11.1488 92.0524 11.1488Z" fill="white"/>
<path d="M20.6228 16.8418H17.0371C16.8992 16.0756 16.6425 15.4013 16.2671 14.8191C15.8917 14.2368 15.432 13.7426 14.888 13.3365C14.344 12.9304 13.7349 12.624 13.0607 12.4171C12.3941 12.2102 11.6854 12.1068 10.9346 12.1068C9.57844 12.1068 8.36406 12.4478 7.29142 13.1297C6.22644 13.8115 5.38365 14.8114 4.76306 16.1292C4.15012 17.447 3.84365 19.056 3.84365 20.9561C3.84365 22.8715 4.15012 24.4881 4.76306 25.806C5.38365 27.1238 6.23027 28.1198 7.30291 28.794C8.37555 29.4683 9.58227 29.8054 10.9231 29.8054C11.6663 29.8054 12.3711 29.7058 13.0377 29.5066C13.7119 29.2997 14.321 28.9971 14.865 28.5987C15.409 28.2002 15.8687 27.7137 16.2441 27.1391C16.6272 26.5568 16.8916 25.8902 17.0371 25.1394L20.6228 25.1509C20.4313 26.3078 20.0597 27.3728 19.508 28.3458C18.964 29.3112 18.263 30.1463 17.4049 30.8512C16.5544 31.5484 15.5814 32.0886 14.4858 32.4716C13.3901 32.8547 12.1949 33.0463 10.9001 33.0463C8.86207 33.0463 7.04625 32.5636 5.45261 31.5982C3.85897 30.6252 2.60245 29.2346 1.68305 27.4264C0.771302 25.6182 0.31543 23.4615 0.31543 20.9561C0.31543 18.443 0.775133 16.2863 1.69454 14.4858C2.61394 12.6776 3.87047 11.2908 5.4641 10.3255C7.05774 9.35242 8.86973 8.86591 10.9001 8.86591C12.1489 8.86591 13.3135 9.04596 14.3938 9.40606C15.4818 9.7585 16.4587 10.2795 17.3244 10.969C18.1902 11.6509 18.9066 12.4861 19.4735 13.4744C20.0405 14.4551 20.4236 15.5776 20.6228 16.8418Z" fill="white"/>
<path d="M26.8447 9.1877V32.7245H23.2935V9.1877H26.8447Z" fill="white"/>
<path d="M30.4377 32.7245V9.1877H45.1941V12.2447H33.9889V19.4161H44.4241V22.4616H33.9889V29.6675H45.332V32.7245H30.4377Z" fill="white"/>
<path d="M84.5765 20.9561C84.5765 23.4691 84.1168 25.6297 83.1974 27.4379C82.278 29.2384 81.0176 30.6252 79.4164 31.5982C77.8227 32.5636 76.0107 33.0463 73.9804 33.0463C71.9423 33.0463 70.1227 32.5636 68.5214 31.5982C66.9278 30.6252 65.6712 29.2346 64.7518 27.4264C63.8324 25.6182 63.3727 23.4615 63.3727 20.9561C63.3727 18.443 63.8324 16.2863 64.7518 14.4858C65.6712 12.6776 66.9278 11.2908 68.5214 10.3255C70.1227 9.35242 71.9423 8.86591 73.9804 8.86591C76.0107 8.86591 77.8227 9.35242 79.4164 10.3255C81.0176 11.2908 82.278 12.6776 83.1974 14.4858C84.1168 16.2863 84.5765 18.443 84.5765 20.9561ZM81.0598 20.9561C81.0598 19.0407 80.7495 17.4279 80.1289 16.1177C79.516 14.7999 78.6732 13.8039 77.6005 13.1297C76.5355 12.4478 75.3288 12.1068 73.9804 12.1068C72.6242 12.1068 71.4137 12.4478 70.3487 13.1297C69.2837 13.8039 68.4409 14.7999 67.8203 16.1177C67.2074 17.4279 66.9009 19.0407 66.9009 20.9561C66.9009 22.8715 67.2074 24.4881 67.8203 25.806C68.4409 27.1161 69.2837 28.1121 70.3487 28.794C71.4137 29.4683 72.6242 29.8054 73.9804 29.8054C75.3288 29.8054 76.5355 29.4683 77.6005 28.794C78.6732 28.1121 79.516 27.1161 80.1289 25.806C80.7495 24.4881 81.0598 22.8715 81.0598 20.9561Z" fill="white"/>
<path d="M48.359 9.1877L48.359 32.7245L51.9102 32.7245L51.9102 12.2447L62.5753 12.2447L62.5753 9.1877L48.359 9.1877Z" fill="white"/>
</svg>
