<svg width="119" height="40" viewBox="0 0 119 40" fill="none" xmlns="http://www.w3.org/2000/svg">
<path d="M109.126 10.82V4.16614H112.318C112.654 4.16614 112.979 4.24728 113.291 4.40957C113.61 4.56585 113.871 4.80027 114.076 5.11283C114.286 5.41938 114.391 5.79806 114.391 6.24887C114.391 6.69967 114.283 7.09037 114.067 7.42096C113.856 7.74554 113.586 7.99499 113.255 8.1693C112.931 8.34362 112.594 8.43077 112.245 8.43077H109.775V7.52014H111.939C112.245 7.52014 112.519 7.41195 112.759 7.19556C113.006 6.97316 113.129 6.6576 113.129 6.24887C113.129 5.82811 113.006 5.52758 112.759 5.34725C112.519 5.16693 112.254 5.07677 111.966 5.07677H110.289V10.82H109.126ZM113.003 7.72751L114.662 10.82H113.363L111.75 7.72751H113.003ZM111.569 14.7871C110.571 14.7871 109.637 14.6008 108.765 14.2281C107.894 13.8555 107.127 13.3386 106.466 12.6774C105.805 12.0162 105.288 11.2498 104.915 10.3783C104.543 9.5067 104.356 8.57202 104.356 7.57424C104.356 6.57645 104.543 5.64178 104.915 4.77022C105.288 3.89866 105.805 3.13229 106.466 2.47111C107.127 1.80992 107.894 1.293 108.765 0.920329C109.637 0.547662 110.571 0.361328 111.569 0.361328C112.567 0.361328 113.502 0.547662 114.373 0.920329C115.245 1.293 116.011 1.80992 116.672 2.47111C117.334 3.13229 117.85 3.89866 118.223 4.77022C118.596 5.64178 118.782 6.57645 118.782 7.57424C118.782 8.57202 118.596 9.5067 118.223 10.3783C117.85 11.2498 117.334 12.0162 116.672 12.6774C116.011 13.3386 115.245 13.8555 114.373 14.2281C113.502 14.6008 112.567 14.7871 111.569 14.7871ZM111.569 13.4437C112.651 13.4437 113.634 13.1793 114.517 12.6503C115.407 12.1214 116.116 11.4151 116.645 10.5315C117.174 9.64194 117.439 8.65617 117.439 7.57424C117.439 6.4923 117.174 5.50954 116.645 4.62596C116.116 3.73637 115.407 3.0271 114.517 2.49815C113.634 1.96921 112.651 1.70473 111.569 1.70473C110.487 1.70473 109.502 1.96921 108.612 2.49815C107.728 3.0271 107.022 3.73637 106.493 4.62596C105.964 5.50954 105.7 6.4923 105.7 7.57424C105.7 8.65617 105.964 9.64194 106.493 10.5315C107.022 11.4151 107.728 12.1214 108.612 12.6503C109.502 13.1793 110.487 13.4437 111.569 13.4437Z" fill="#82441E"/>
<path d="M24.9432 20.348H20.5947C20.4274 19.4188 20.1162 18.6012 19.6609 17.895C19.2056 17.1888 18.6481 16.5895 17.9884 16.097C17.3286 15.6046 16.5899 15.2329 15.7723 14.982C14.9639 14.7311 14.1044 14.6057 13.1938 14.6057C11.5492 14.6057 10.0764 15.0192 8.77558 15.8462C7.48402 16.6731 6.46193 17.8857 5.7093 19.4839C4.96596 21.0821 4.59429 23.0333 4.59429 25.3377C4.59429 27.6606 4.96596 29.6212 5.7093 31.2194C6.46193 32.8176 7.48867 34.0255 8.78952 34.8432C10.0904 35.6608 11.5538 36.0697 13.1799 36.0697C14.0812 36.0697 14.936 35.9489 15.7444 35.7073C16.5621 35.4564 17.3008 35.0894 17.9605 34.6062C18.6202 34.1231 19.1777 33.533 19.633 32.8361C20.0976 32.13 20.4182 31.3216 20.5947 30.411L24.9432 30.4249C24.711 31.828 24.2603 33.1195 23.5913 34.2996C22.9316 35.4704 22.0814 36.4832 21.0407 37.338C20.0093 38.1836 18.8293 38.8386 17.5005 39.3032C16.1718 39.7678 14.7223 40.0001 13.152 40.0001C10.6804 40.0001 8.47824 39.4147 6.54556 38.2439C4.61287 37.0639 3.08902 35.3774 1.97401 33.1846C0.86829 30.9917 0.31543 28.3761 0.31543 25.3377C0.31543 22.29 0.872935 19.6744 1.98795 17.4908C3.10296 15.2979 4.62681 13.6161 6.55949 12.4454C8.49218 11.2653 10.6897 10.6753 13.152 10.6753C14.6666 10.6753 16.0789 10.8936 17.389 11.3304C18.7085 11.7578 19.8932 12.3896 20.9431 13.2259C21.9931 14.0528 22.8619 15.0657 23.5495 16.2643C24.2371 17.4536 24.7017 18.8149 24.9432 20.348Z" fill="#82441E"/>
<path d="M32.4889 11.0655V39.6098H28.1821V11.0655H32.4889Z" fill="#82441E"/>
<path d="M36.8462 39.6098V11.0655H54.7422V14.773H41.153V23.47H53.8084V27.1635H41.153V35.9024H54.9094V39.6098H36.8462Z" fill="#82441E"/>
<path d="M102.503 25.3377C102.503 28.3854 101.946 31.0057 100.831 33.1985C99.7157 35.3821 98.1872 37.0639 96.2452 38.2439C94.3126 39.4147 92.1151 40.0001 89.6527 40.0001C87.1811 40.0001 84.9743 39.4147 83.0324 38.2439C81.0997 37.0639 79.5758 35.3774 78.4608 33.1846C77.3458 30.9917 76.7883 28.3761 76.7883 25.3377C76.7883 22.29 77.3458 19.6744 78.4608 17.4908C79.5758 15.2979 81.0997 13.6161 83.0324 12.4454C84.9743 11.2653 87.1811 10.6753 89.6527 10.6753C92.1151 10.6753 94.3126 11.2653 96.2452 12.4454C98.1872 13.6161 99.7157 15.2979 100.831 17.4908C101.946 19.6744 102.503 22.29 102.503 25.3377ZM98.2383 25.3377C98.2383 23.0148 97.862 21.0588 97.1094 19.4699C96.366 17.8718 95.3439 16.6638 94.0431 15.8462C92.7515 15.0192 91.2881 14.6057 89.6527 14.6057C88.0081 14.6057 86.54 15.0192 85.2484 15.8462C83.9569 16.6638 82.9348 17.8718 82.1822 19.4699C81.4388 21.0588 81.0671 23.0148 81.0671 25.3377C81.0671 27.6606 81.4388 29.6212 82.1822 31.2194C82.9348 32.8083 83.9569 34.0162 85.2484 34.8432C86.54 35.6608 88.0081 36.0697 89.6527 36.0697C91.2881 36.0697 92.7515 35.6608 94.0431 34.8432C95.3439 34.0162 96.366 32.8083 97.1094 31.2194C97.862 29.6212 98.2383 27.6606 98.2383 25.3377Z" fill="#82441E"/>
<path d="M58.5808 11.0656L58.5808 39.6099L62.8876 39.6099L62.8876 14.773L75.8217 14.773L75.8217 11.0656L58.5808 11.0656Z" fill="#82441E"/>
</svg>
